<svg display="none" xmlns="http://www.w3.org/2000/svg">
    <symbol id="volume" viewBox="0 0 400 400">
        <path id="path0" d="M243.750 27.619 L 243.750 51.437 247.852 52.769 C 289.075 66.162,325.322 98.968,342.231 138.190 C 378.375 222.027,334.567 319.058,247.852 347.231 L 243.750 348.563 243.750 372.381 C 243.750 394.696,243.836 396.174,245.117 395.800 C 245.869 395.580,249.928 394.477,254.136 393.350 C 323.698 374.706,379.149 316.265,395.342 244.531 C 418.855 140.365,355.630 33.853,254.136 6.650 C 249.928 5.523,245.869 4.420,245.117 4.200 C 243.836 3.826,243.750 5.304,243.750 27.619 M144.141 77.344 L 88.676 132.813 44.338 132.813 L 0.000 132.813 0.000 200.000 L 0.000 267.188 44.334 267.188 L 88.668 267.188 144.334 322.850 L 200.000 378.512 200.000 200.193 C 200.000 102.118,199.911 21.875,199.803 21.875 C 199.694 21.875,174.646 46.836,144.141 77.344 M243.750 200.000 C 243.750 273.932,243.928 289.063,244.797 289.063 C 246.202 289.063,257.823 282.035,262.917 278.105 C 312.604 239.772,312.604 160.228,262.917 121.895 C 257.823 117.965,246.202 110.938,244.797 110.938 C 243.928 110.938,243.750 126.068,243.750 200.000"></path>
    </symbol>

    <symbol id="previous" viewBox="0 0 400 400">
        <path id="path0" d="M0.000 200.000 L 0.000 400.000 33.594 400.000 L 67.188 400.000 67.188 200.000 L 67.188 0.000 33.594 0.000 L 0.000 0.000 0.000 200.000 M257.813 99.701 C 180.254 154.486,116.797 199.620,116.797 200.000 C 116.797 200.647,398.662 400.000,399.577 400.000 C 399.810 400.000,400.000 310.000,400.000 200.000 C 400.000 90.000,399.736 0.021,399.414 0.046 C 399.092 0.071,335.371 44.916,257.813 99.701 "></path>
    </symbol>
    <symbol id="next" viewBox="0 0 400 400">
        <path id="path0" d="M0.000 200.000 C 0.000 310.000,0.190 400.000,0.423 400.000 C 1.338 400.000,283.203 200.647,283.203 200.000 C 283.203 199.353,1.338 0.000,0.423 0.000 C 0.190 0.000,0.000 90.000,0.000 200.000 M332.813 200.000 L 332.813 400.000 366.406 400.000 L 400.000 400.000 400.000 200.000 L 400.000 0.000 366.406 0.000 L 332.813 0.000 332.813 200.000 "></path>
    </symbol>
    <symbol id="play" viewBox="0 0 400 400">
        <path id="path0" d="M42.188 200.000 C 42.188 374.619,42.332 400.082,43.323 399.862 C 44.683 399.559,357.739 200.562,357.739 200.000 C 357.739 199.438,44.683 0.441,43.323 0.138 C 42.332 -0.082,42.188 25.381,42.188 200.000 "></path>
    </symbol>
    <symbol id="pause" viewBox="0 0 400 400">
        <path id="path0" d="M28.125 200.000 L 28.125 400.000 85.547 400.000 L 142.969 400.000 142.969 200.000 L 142.969 0.000 85.547 0.000 L 28.125 0.000 28.125 200.000 M257.031 200.000 L 257.031 400.000 314.453 400.000 L 371.875 400.000 371.875 200.000 L 371.875 0.000 314.453 0.000 L 257.031 0.000 257.031 200.000 "></path>
    </symbol>
    <symbol id="mute" viewBox="0 0 400 400">
        <path id="path0" d="M249.609 62.500 L 187.113 125.000 137.307 125.000 L 87.500 125.000 87.500 200.000 L 87.500 275.000 137.303 275.000 L 187.106 275.000 249.803 337.693 L 312.500 400.387 312.500 200.193 C 312.500 90.087,312.411 -0.000,312.303 -0.000 C 312.194 -0.000,283.982 28.125,249.609 62.500 "></path>
    </symbol>
    
</svg>