<svg display="none" xmlns="http://www.w3.org/2000/svg">
    <symbol id="logo" viewBox="0 0 35 50">
        <path d="M26.3846 43.3511H35V19.9468C33.9231 21.7908 32.3795 22.961 30.3692 23.4574C28.4308 23.9539 26.3846 24.2021 24.2308 24.2021C21.2872 24.2021 18.7385 25.1241 16.5846 26.9681C14.5026 28.8121 13.4615 31.0816 13.4615 33.7766C13.4615 36.9681 14.5026 39.3794 16.5846 41.0106C18.7385 42.5709 21.2872 43.3511 24.2308 43.3511C25.0205 43.3511 25.7385 43.3156 26.3846 43.2447V43.3511ZM24.2308 35.9043C23.6564 35.9043 23.1538 35.6915 22.7231 35.266C22.2923 34.8404 22.0769 34.344 22.0769 33.7766C22.0769 33.2092 22.2923 32.7128 22.7231 32.2872C23.1538 31.8617 23.6564 31.6489 24.2308 31.6489C24.8051 31.6489 25.3077 31.8617 25.7385 32.2872C26.1692 32.7128 26.3846 33.2092 26.3846 33.7766C26.3846 34.344 26.1692 34.8404 25.7385 35.266C25.3077 35.6915 24.8051 35.9043 24.2308 35.9043Z"/>
        <path d="M0 50L8.61538 47.8723V23.5106C9.33333 23.4397 10.0513 23.4043 10.7692 23.4043C13.7128 23.4043 16.2256 22.4823 18.3077 20.6383C20.4615 18.7234 21.5385 16.4539 21.5385 13.8298C21.5385 10.6383 20.4615 8.26241 18.3077 6.70213C16.2256 5.07092 13.7128 4.25532 10.7692 4.25532C8.61538 4.25532 6.53333 4.00709 4.52308 3.51064C2.58462 3.01418 1.07692 1.84397 0 0V50ZM10.7692 11.7021C11.3436 11.7021 11.8462 11.9149 12.2769 12.3404C12.7077 12.766 12.9231 13.2624 12.9231 13.8298C12.9231 14.3972 12.7077 14.8936 12.2769 15.3191C11.8462 15.7447 11.3436 15.9574 10.7692 15.9574C10.1949 15.9574 9.69231 15.7447 9.26154 15.3191C8.83077 14.8936 8.61538 14.3972 8.61538 13.8298C8.61538 13.2624 8.83077 12.766 9.26154 12.3404C9.69231 11.9149 10.1949 11.7021 10.7692 11.7021Z"/>
    </symbol>

    <symbol id="volume" viewBox="0 0 58.36 50">
        <path d="M37.51,25q0,9.87,0,19.73A5.19,5.19,0,0,1,32.09,50a5.55,5.55,0,0,1-3.16-1.22Q21.67,43.32,14.4,37.89a2,2,0,0,0-1.11-.37c-2.28,0-4.56,0-6.84,0A6.23,6.23,0,0,1,0,31.05Q0,25,0,18.94A6.24,6.24,0,0,1,6.46,12.5c2.28,0,4.56,0,6.84,0a2.11,2.11,0,0,0,1.11-.38c4.89-3.64,9.75-7.31,14.64-11a5.19,5.19,0,0,1,7.56,1.13,5.58,5.58,0,0,1,.91,3.2Q37.5,15.24,37.51,25Z"/>
        <path d="M58.36,25.5A22.59,22.59,0,0,1,51.83,41a2.1,2.1,0,1,1-3-2.89,18.45,18.45,0,0,0,5.34-13.61,18.36,18.36,0,0,0-5.07-12.36c-.15-.16-.31-.31-.45-.47a2.09,2.09,0,0,1,3-2.87,22.48,22.48,0,0,1,4,5.42A23.55,23.55,0,0,1,58.36,25.5Z"/>
        <path d="M50,25A14.71,14.71,0,0,1,45.9,35.13a2.06,2.06,0,0,1-3.06.21,2.11,2.11,0,0,1,0-3.07,10.38,10.38,0,0,0-.17-14.71,2.08,2.08,0,1,1,3-2.91A14.64,14.64,0,0,1,50,25Z"/>
    </symbol>

    <symbol id="previous" viewBox="0 0 400 400">
        <path d="M50.595 26.517 C 39.275 30.136,29.571 40.093,26.239 51.509 C 24.143 58.687,24.374 342.379,26.480 349.148 C 32.555 368.667,44.442 375.000,75.000 375.000 C 105.558 375.000,117.445 368.667,123.520 349.148 C 125.832 341.718,125.832 58.282,123.520 50.852 C 119.937 39.339,110.044 29.611,98.491 26.239 C 91.900 24.315,56.848 24.518,50.595 26.517 M322.656 26.831 C 319.863 27.819,316.053 29.593,314.190 30.773 C 308.596 34.314,159.297 172.771,156.453 177.056 C 147.909 189.927,147.909 210.068,156.453 222.946 C 160.929 229.692,311.165 367.878,317.314 370.905 C 339.490 381.822,365.583 371.103,373.371 347.876 C 374.999 343.022,375.000 342.913,374.984 199.829 L 374.967 56.641 373.169 51.563 C 367.232 34.791,353.394 25.033,335.547 25.033 C 329.386 25.033,326.661 25.413,322.656 26.831"></path>
    </symbol>
    <symbol id="next" viewBox="0 0 400 400">
        <path d="M55.501 25.527 C 42.651 28.240,31.056 38.922,26.629 52.124 C 24.057 59.794,24.057 340.206,26.629 347.876 C 34.984 372.793,65.218 383.167,86.763 368.510 C 93.420 363.981,240.026 227.938,243.164 223.377 C 252.268 210.147,252.268 189.853,243.164 176.623 C 240.026 172.062,93.420 36.019,86.763 31.490 C 79.040 26.236,64.909 23.540,55.501 25.527 M300.595 26.517 C 289.275 30.136,279.571 40.093,276.239 51.509 C 274.143 58.687,274.374 342.379,276.480 349.148 C 282.555 368.667,294.442 375.000,325.000 375.000 C 355.558 375.000,367.445 368.667,373.520 349.148 C 375.832 341.718,375.832 58.282,373.520 50.852 C 369.937 39.339,360.044 29.611,348.491 26.239 C 341.900 24.315,306.848 24.518,300.595 26.517"></path>
    </symbol>
    <symbol id="play" viewBox="0 0 400 400">
        <path d="M80.557 26.195 C 66.884 30.002,55.326 41.524,51.246 55.415 C 49.725 60.595,49.343 337.215,50.848 343.750 C 56.792 369.558,89.069 383.370,112.230 370.016 C 139.483 354.302,332.474 230.852,337.233 226.088 C 357.523 205.777,353.732 171.215,329.506 155.649 C 318.952 148.868,111.047 29.240,106.641 27.413 C 100.705 24.951,87.273 24.324,80.557 26.195"></path>
    </symbol>
    <symbol id="pause" viewBox="0 0 400 400">
        <path id="path0" d="M75.595 26.517 C 64.275 30.136,54.571 40.093,51.239 51.509 C 49.143 58.687,49.374 342.379,51.480 349.148 C 55.063 360.661,64.956 370.389,76.509 373.761 C 82.805 375.599,142.195 375.599,148.491 373.761 C 160.044 370.389,169.937 360.661,173.520 349.148 C 175.832 341.718,175.832 58.282,173.520 50.852 C 169.937 39.339,160.044 29.611,148.491 26.239 C 141.707 24.258,81.947 24.487,75.595 26.517 M250.595 26.517 C 239.275 30.136,229.571 40.093,226.239 51.509 C 224.143 58.687,224.374 342.379,226.480 349.148 C 230.063 360.661,239.956 370.389,251.509 373.761 C 257.805 375.599,317.195 375.599,323.491 373.761 C 335.044 370.389,344.937 360.661,348.520 349.148 C 350.832 341.718,350.832 58.282,348.520 50.852 C 344.937 39.339,335.044 29.611,323.491 26.239 C 316.707 24.258,256.947 24.487,250.595 26.517 "></path>
    </symbol>
    <symbol id="img_mask" viewBox="0 0 500 500">
        <path d="M0,0H500V500H0ZM195.58,68.71a23.21,23.21,0,0,0-4.15,2.93c-12.38,12.61-24.62,25.35-37,37.93a26.32,26.32,0,0,1-6.8,4.89q-23.67,11.88-47.5,23.43a6.8,6.8,0,0,0-4.31,6C94,157.56,91.67,171.19,90,184.91c-1.26,10.19-3.87,19.7-9.07,28.72-7.08,12.26-13.21,25.05-20,37.51a7.22,7.22,0,0,0,0,7.79q12.54,23.32,24.64,46.9a26.84,26.84,0,0,1,2.53,8c2.67,17.28,5.32,34.57,7.62,51.9.49,3.71,2.1,5.45,5.23,7q23.61,11.4,47.05,23.19a24.37,24.37,0,0,1,6.38,4.65q18.6,18.87,36.94,38a7.41,7.41,0,0,0,7.5,2.47c12.28-2.25,24.57-4.47,36.9-6.46,7.35-1.19,15-3.44,22.13-2.56,17.83,2.17,35.48,5.81,53.18,9A7.82,7.82,0,0,0,319,438.4c12.18-12.8,24.53-25.43,36.93-38a24.74,24.74,0,0,1,6.41-4.6q23.68-11.86,47.5-23.43a7.17,7.17,0,0,0,4.57-6.32c1.77-13.71,4.18-27.34,5.79-41.06a74.34,74.34,0,0,1,9.21-28.68c7-12.3,13.19-25.06,19.91-37.52a6.82,6.82,0,0,0,0-7.34c-8.42-15.71-16.67-31.51-24.89-47.33a21.66,21.66,0,0,1-2.26-6.53c-2.71-17.78-5.42-35.57-7.77-53.4-.47-3.56-2.07-5.16-5-6.58q-23.39-11.34-46.61-23a29.36,29.36,0,0,1-7.55-5.54c-12.31-12.44-24.37-25.13-36.76-37.49a9.34,9.34,0,0,0-6.89-2.29c-10.39,1.46-20.76,3.15-31,5.35-15.77,3.39-31.32,4.75-47.33.69C221.36,72.31,209,71,195.58,68.71Z"/>
    </symbol>
    
</svg>