<svg display="none" xmlns="http://www.w3.org/2000/svg">
    <symbol id="volume" viewBox="0 0 58.36 50">
        <path d="M37.51,25q0,9.87,0,19.73A5.19,5.19,0,0,1,32.09,50a5.55,5.55,0,0,1-3.16-1.22Q21.67,43.32,14.4,37.89a2,2,0,0,0-1.11-.37c-2.28,0-4.56,0-6.84,0A6.23,6.23,0,0,1,0,31.05Q0,25,0,18.94A6.24,6.24,0,0,1,6.46,12.5c2.28,0,4.56,0,6.84,0a2.11,2.11,0,0,0,1.11-.38c4.89-3.64,9.75-7.31,14.64-11a5.19,5.19,0,0,1,7.56,1.13,5.58,5.58,0,0,1,.91,3.2Q37.5,15.24,37.51,25Z"/>
        <path d="M58.36,25.5A22.59,22.59,0,0,1,51.83,41a2.1,2.1,0,1,1-3-2.89,18.45,18.45,0,0,0,5.34-13.61,18.36,18.36,0,0,0-5.07-12.36c-.15-.16-.31-.31-.45-.47a2.09,2.09,0,0,1,3-2.87,22.48,22.48,0,0,1,4,5.42A23.55,23.55,0,0,1,58.36,25.5Z"/>
        <path d="M50,25A14.71,14.71,0,0,1,45.9,35.13a2.06,2.06,0,0,1-3.06.21,2.11,2.11,0,0,1,0-3.07,10.38,10.38,0,0,0-.17-14.71,2.08,2.08,0,1,1,3-2.91A14.64,14.64,0,0,1,50,25Z"/>
    </symbol>

    <symbol id="previous" viewBox="0 0 400 400">
        <path id="path0" d="M0.000 200.000 L 0.000 400.000 33.594 400.000 L 67.188 400.000 67.188 200.000 L 67.188 0.000 33.594 0.000 L 0.000 0.000 0.000 200.000 M257.813 99.701 C 180.254 154.486,116.797 199.620,116.797 200.000 C 116.797 200.647,398.662 400.000,399.577 400.000 C 399.810 400.000,400.000 310.000,400.000 200.000 C 400.000 90.000,399.736 0.021,399.414 0.046 C 399.092 0.071,335.371 44.916,257.813 99.701 "></path>
    </symbol>
    <symbol id="next" viewBox="0 0 400 400">
        <path id="path0" d="M0.000 200.000 C 0.000 310.000,0.190 400.000,0.423 400.000 C 1.338 400.000,283.203 200.647,283.203 200.000 C 283.203 199.353,1.338 0.000,0.423 0.000 C 0.190 0.000,0.000 90.000,0.000 200.000 M332.813 200.000 L 332.813 400.000 366.406 400.000 L 400.000 400.000 400.000 200.000 L 400.000 0.000 366.406 0.000 L 332.813 0.000 332.813 200.000 "></path>
    </symbol>
    <symbol id="play" viewBox="0 0 400 400">
        <path id="path0" d="M42.188 200.000 C 42.188 374.619,42.332 400.082,43.323 399.862 C 44.683 399.559,357.739 200.562,357.739 200.000 C 357.739 199.438,44.683 0.441,43.323 0.138 C 42.332 -0.082,42.188 25.381,42.188 200.000 "></path>
    </symbol>
    <symbol id="pause" viewBox="0 0 400 400">
        <path id="path0" d="M28.125 200.000 L 28.125 400.000 85.547 400.000 L 142.969 400.000 142.969 200.000 L 142.969 0.000 85.547 0.000 L 28.125 0.000 28.125 200.000 M257.031 200.000 L 257.031 400.000 314.453 400.000 L 371.875 400.000 371.875 200.000 L 371.875 0.000 314.453 0.000 L 257.031 0.000 257.031 200.000 "></path>
    </symbol>
    
</svg>