<?xml version="1.0" standalone="no"?>
<!DOCTYPE svg PUBLIC "-//W3C//DTD SVG 20010904//EN"
 "http://www.w3.org/TR/2001/REC-SVG-20010904/DTD/svg10.dtd">
<svg version="1.0" xmlns="http://www.w3.org/2000/svg"
 width="512.000000pt" height="512.000000pt" viewBox="0 0 512.000000 512.000000"
 preserveAspectRatio="xMidYMid meet">

<g transform="translate(0.000000,512.000000) scale(0.100000,-0.100000)"
fill="#000000" stroke="none">
<path d="M681 4784 c-169 -45 -301 -180 -346 -351 -23 -86 -23 -3660 0 -3746
45 -173 178 -307 350 -352 84 -21 466 -21 550 0 172 45 305 179 350 352 23 86
23 3660 0 3746 -45 173 -178 307 -350 352 -81 21 -475 20 -554 -1z"/>
<path d="M4176 4784 c-32 -8 -85 -28 -118 -46 -66 -35 -104 -70 -1282 -1159
-635 -588 -745 -693 -778 -749 -55 -92 -73 -157 -73 -270 0 -113 18 -177 73
-270 34 -56 168 -184 1018 -970 1041 -962 1030 -953 1165 -985 268 -63 540
106 604 376 13 56 15 292 15 1849 0 1557 -2 1793 -15 1849 -64 271 -339 440
-609 375z"/>
</g>
</svg>
