<svg width="35" height="50" viewBox="0 0 35 50" fill="none" xmlns="http://www.w3.org/2000/svg">
<path d="M26.3846 43.3511H35V19.9468C33.9231 21.7908 32.3795 22.961 30.3692 23.4574C28.4308 23.9539 26.3846 24.2021 24.2308 24.2021C21.2872 24.2021 18.7385 25.1241 16.5846 26.9681C14.5026 28.8121 13.4615 31.0816 13.4615 33.7766C13.4615 36.9681 14.5026 39.3794 16.5846 41.0106C18.7385 42.5709 21.2872 43.3511 24.2308 43.3511C25.0205 43.3511 25.7385 43.3156 26.3846 43.2447V43.3511ZM24.2308 35.9043C23.6564 35.9043 23.1538 35.6915 22.7231 35.266C22.2923 34.8404 22.0769 34.344 22.0769 33.7766C22.0769 33.2092 22.2923 32.7128 22.7231 32.2872C23.1538 31.8617 23.6564 31.6489 24.2308 31.6489C24.8051 31.6489 25.3077 31.8617 25.7385 32.2872C26.1692 32.7128 26.3846 33.2092 26.3846 33.7766C26.3846 34.344 26.1692 34.8404 25.7385 35.266C25.3077 35.6915 24.8051 35.9043 24.2308 35.9043Z" fill="black"/>
<path d="M0 50L8.61538 47.8723V23.5106C9.33333 23.4397 10.0513 23.4043 10.7692 23.4043C13.7128 23.4043 16.2256 22.4823 18.3077 20.6383C20.4615 18.7234 21.5385 16.4539 21.5385 13.8298C21.5385 10.6383 20.4615 8.26241 18.3077 6.70213C16.2256 5.07092 13.7128 4.25532 10.7692 4.25532C8.61538 4.25532 6.53333 4.00709 4.52308 3.51064C2.58462 3.01418 1.07692 1.84397 0 0V50ZM10.7692 11.7021C11.3436 11.7021 11.8462 11.9149 12.2769 12.3404C12.7077 12.766 12.9231 13.2624 12.9231 13.8298C12.9231 14.3972 12.7077 14.8936 12.2769 15.3191C11.8462 15.7447 11.3436 15.9574 10.7692 15.9574C10.1949 15.9574 9.69231 15.7447 9.26154 15.3191C8.83077 14.8936 8.61538 14.3972 8.61538 13.8298C8.61538 13.2624 8.83077 12.766 9.26154 12.3404C9.69231 11.9149 10.1949 11.7021 10.7692 11.7021Z" fill="black"/>
</svg>
