<?xml version="1.0" standalone="no"?>
<!DOCTYPE svg PUBLIC "-//W3C//DTD SVG 20010904//EN"
 "http://www.w3.org/TR/2001/REC-SVG-20010904/DTD/svg10.dtd">
<svg version="1.0" xmlns="http://www.w3.org/2000/svg"
 width="512.000000pt" height="512.000000pt" viewBox="0 0 512.000000 512.000000"
 preserveAspectRatio="xMidYMid meet">

<g transform="translate(0.000000,512.000000) scale(0.100000,-0.100000)"
fill="#000000" stroke="none">
<path d="M706 4785 c-185 -47 -342 -211 -376 -394 -14 -74 -14 -3588 0 -3662
16 -84 74 -193 139 -258 167 -167 418 -197 618 -74 70 43 1957 1782 2005 1847
143 195 143 437 0 632 -48 65 -1935 1804 -2005 1847 -34 21 -84 45 -112 53
-73 22 -198 27 -269 9z"/>
<path d="M3881 4784 c-169 -45 -301 -180 -346 -351 -23 -86 -23 -3660 0 -3746
45 -173 178 -307 350 -352 84 -21 466 -21 550 0 172 45 305 179 350 352 23 86
23 3660 0 3746 -45 173 -178 307 -350 352 -81 21 -475 20 -554 -1z"/>
</g>
</svg>
