<?xml version="1.0" standalone="no"?>
<!DOCTYPE svg PUBLIC "-//W3C//DTD SVG 20010904//EN"
 "http://www.w3.org/TR/2001/REC-SVG-20010904/DTD/svg10.dtd">
<svg version="1.0" xmlns="http://www.w3.org/2000/svg"
 width="512.000000pt" height="512.000000pt" viewBox="0 0 512.000000 512.000000"
 preserveAspectRatio="xMidYMid meet">

<g transform="translate(0.000000,512.000000) scale(0.100000,-0.100000)"
fill="#000000" stroke="none">
<path d="M1042 4780 c-95 -25 -172 -70 -242 -140 -72 -72 -115 -147 -140 -246
-20 -76 -20 -114 -20 -1838 0 -1935 -3 -1821 61 -1948 41 -82 145 -186 227
-227 133 -67 288 -78 423 -28 46 16 500 298 1475 913 1576 994 1515 952 1593
1113 87 180 78 382 -24 557 -35 60 -106 137 -160 174 -22 15 -490 287 -1040
605 -550 317 -1175 679 -1390 803 -214 124 -419 237 -455 250 -91 34 -211 39
-308 12z"/>
</g>
</svg>
